# xmcd
#
# Track frame offsets:
#	150
#	14043
#	28169
#	40626
#	53780
#	62614
#	75303
#	85833
#	101911
#	116024
#	132120
#	142702
#	157855
#	168641
#	181930
#
# Disc length: 2673 seconds
#
# Revision: 0
# Processed by: cddbd v1.4PL0 Copyright (c) Steve Scherf et al.
# Submitted via: EasyCDDAExtractor 4.6.9.1
#
DISCID=b80a6f0f
DTITLE=Bluegrass Brothers - Memories Of The Blue Ridge
DYEAR=2002
DGENRE=Bluegrass
TTITLE0=Cold Hearted Plan
TTITLE1=United We Stand
TTITLE2=A Few Degrees Colder
TTITLE3=Memories Of The Blue Ridge
TTITLE4=He'll Meet Me Over There
TTITLE5=She's No Angel
TTITLE6=Countryfied
TTITLE7=Freeborn Man
TTITLE8=Drunkard's Hell
TTITLE9=Home Sweet Home Revisited
TTITLE10=Cold Virginia Blues
TTITLE11=Please Take My Hand
TTITLE12=I Can't Stand This Misery
TTITLE13=Blow, Train Whistle
TTITLE14=I Know You, Rider
EXTD=
EXTT0=
EXTT1=
EXTT2=
EXTT3=
EXTT4=
EXTT5=
EXTT6=
EXTT7=
EXTT8=
EXTT9=
EXTT10=
EXTT11=
EXTT12=
EXTT13=
EXTT14=
PLAYORDER=
